<?xml version="1.0" encoding="utf-8"?>
<!-- Generator: Adobe Illustrator 22.1.0, SVG Export Plug-In . SVG Version: 6.00 Build 0)  -->
<svg version="1.1" id="Layer_1" xmlns="http://www.w3.org/2000/svg" xmlns:xlink="http://www.w3.org/1999/xlink" x="0px" y="0px"
	 viewBox="0 0 600 157" style="enable-background:new 0 0 600 157;" xml:space="preserve">
<style type="text/css">
	.st0{fill:#194F50;}
	.st1{fill:#329DA0;}
	.st2{fill:#267678;}
</style>
<path id="XMLID_232_" class="st0" d="M0,104.1l12-34.5l13.8,42.1L46,87.5L83.3,120l47.2-20.9l31.7,25.4l49.8-37l28.1,37l59.9-12.8
	l56.5,30.1l52.3-33.2l33.8,33.2l6.2-23.3l14.2,17.9l29.5-17.9l29,23.3l47.9-46.3l8.5,16.2L600,57v100H0V104.1z"/>
<path id="XMLID_43_" class="st1" d="M569.4,95.5L559,157h-51.4L569.4,95.5z"/>
<path id="XMLID_38_" class="st2" d="M12,69.6L31.7,157H0v-52.9L12,69.6z"/>
<path id="XMLID_37_" class="st2" d="M212,87.5L165.5,157H119L212,87.5z"/>
<path id="XMLID_36_" class="st2" d="M300,111.7L287,157h-93.8l46.9-32.5L300,111.7z"/>
<path id="XMLID_35_" class="st2" d="M46,87.5l1,69.5H0l25.8-45.3L46,87.5z"/>
<path id="XMLID_34_" class="st2" d="M130.5,99.1L83.3,157H47l33.3-35.5L130.5,99.1z"/>
<path id="XMLID_217_" class="st2" d="M600,157l-52.4-53.4l-38.8,35.1l-34.5-17.3c0,0-34,23.4-38.3,23.4s-55.8-12.3-55.8-12.3
	L330.3,152l-79.1-61.9L188,152.6l-30.7-16.2l-35.1,13.8L76.3,80l-16,70.3L9,103.3L0,157H600z"/>
<path id="XMLID_39_" class="st2" d="M600,57l-22.7,100H559L600,57z"/>
<path id="XMLID_32_" class="st0" d="M9,103.3L31.7,157h36.6L9,103.3z"/>
<path id="XMLID_31_" class="st0" d="M251.2,90.1l18.5,66.9h66L251.2,90.1z"/>
<path id="XMLID_30_" class="st2" d="M408.8,108.6l-29,48.4h-46.6L408.8,108.6z"/>
<path id="XMLID_42_" class="st1" d="M547.6,103.7L535,157h-48L547.6,103.7z"/>
<path id="XMLID_29_" class="st0" d="M76.3,80l24.7,77h24.8L76.3,80z"/>
<path id="XMLID_231_" class="st1" d="M0,157l52.4-51.3l38.8,33.7l34.5-16.6c0,0,34,22.5,38.3,22.5s55.8-11.8,55.8-11.8l49.8,18.7
	l79.1-59.5l63.2,60.1l30.7-15.6l35.1,13.3L523.6,83l16,67.5l54.6-31L600,157H0z"/>
<path id="XMLID_311_" class="st0" d="M343.1,157l5.7-64.3L417,157H343.1z"/>
<path id="XMLID_28_" class="st0" d="M523.7,82.9l-4,74.1H541L523.7,82.9z"/>
<path id="XMLID_27_" class="st0" d="M52.4,105.7L68.3,157h43.4L52.4,105.7z"/>
<path id="XMLID_33_" class="st1" d="M9,103.3L0,157h37L9,103.3z"/>
<path id="XMLID_41_" class="st2" d="M594.2,119.5L569.7,157H600L594.2,119.5z"/>
</svg>
