<svg version="1.1" id="header-space" xmlns="http://www.w3.org/2000/svg" x="0" y="0" viewBox="0 0 600 200" xml:space="preserve">
    <style>
        .st0{fill:#d2eee8}.st1{fill:none;stroke:#d2eee8;stroke-miterlimit:10}.st2{fill:#a5ddd1}.st3{fill:#1d544c}.st4{fill:#38a495}.st5{fill:#2b7c73}.st6{fill:#2a7c70}.st7{fill:#9b3b23}.st8{fill:#1d544e}.st9{fill:#38a499}
    </style>
    <g id="XMLID_81_">
        <circle id="XMLID_83_" class="st0" cx="495" cy="86.8" r="34.7"/>
        <circle id="XMLID_82_" class="st1" cx="495" cy="86.8" r="50.6"/>
        <path id="XMLID_59_" class="st2" d="M470.5 111.4c-13.5-13.5-13.5-35.5 0-49.1 13.5-13.5 35.5-13.5 49.1 0"/>
    </g>
    <path id="XMLID_248_" class="st2" d="M409.6 62.9c-11.4 11.4-29.8 11.4-41.2 0s-11.4-29.8 0-41.2"/>
    <path id="XMLID_88_" class="st3" d="M0 147l12-34.4 13.8 42.1L46 130.4 83.3 163l47.2-20.9 31.7 25.4 49.8-37.1 28.1 37.1 59.9-12.8 56.5 30.1 52.3-33.2 33.8 33.2 6.2-23.3 14.2 17.9 29.5-17.9 29 23.3 47.9-46.3 8.5 16.2L600 100v100H0z"/>
    <path id="XMLID_87_" class="st4" d="M569.4 138.5L559 200h-51.4z"/>
    <path id="XMLID_86_" class="st5" d="M12 112.6L31.7 200H0v-53z"/>
    <path id="XMLID_85_" class="st6" d="M212 130.4L165.5 200H119z"/>
    <path id="XMLID_84_" class="st6" d="M300 154.7L287 200h-93.8l46.9-32.5z"/>
    <path id="XMLID_79_" class="st5" d="M46 130.4l1 69.6H0l25.8-45.3z"/>
    <path id="XMLID_78_" class="st6" d="M130.5 142.1L83.3 200H47l33.3-35.5z"/>
    <path id="XMLID_77_" class="st6" d="M600 200l-52.4-53.4-38.8 35.1-34.5-17.3s-34 23.4-38.3 23.4-55.8-12.3-55.8-12.3L330.3 195l-79.1-61.9-63.2 62.5-30.7-16.2-35.1 13.8-45.9-70.3-16 70.3-51.3-47L0 200h600z"/>
    <path id="XMLID_76_" class="st5" d="M600 100l-22.7 100H559z"/>
    <path id="XMLID_73_" class="st3" d="M76.3 122.9L101 200h24.8z"/>
    <path id="XMLID_72_" class="st3" d="M251.2 133.1l18.5 66.9h66z"/>
    <path id="XMLID_75_" class="st3" d="M474.2 164.5l2 35.5H541z"/>
    <g id="XMLID_60_">
        <path id="XMLID_2_" class="st7" d="M33.3 89.9h9.1v41.9h43.1V89.9h9.1v90h-9.1v-39H42.4v39h-9.1v-90z"/>
        <path id="XMLID_4_" class="st7" d="M111.8 105.9c0-12.1 7.3-16.4 15.5-16l38.9 2V99h-38.9c-6.4 0-6.4 3.6-6.4 6.9v24.6l40.3 1.2v7.3l-40.3 1.2v24.6c.1 6.5 4.1 6.4 7.6 6.4h37.6v7l-37.6 2.1c-8.1.5-16.7-1.6-16.7-15.5v-58.9z"/>
        <path id="XMLID_6_" class="st7" d="M181.6 89.9h9.1v74.5c0 6.5 4.1 6.4 7.6 6.4h37.6v9.1h-37.6c-8.1 0-16.7-1.6-16.7-15.5V89.9z"/>
        <path id="XMLID_8_" class="st7" d="M250.1 89.9h9.1v74.5c0 6.5 4.1 6.4 7.6 6.4h37.6v9.1h-37.6c-8.1 0-16.7-1.6-16.7-15.5V89.9z"/>
        <path id="XMLID_10_" class="st7" d="M348 89.3c21.3 0 34.7 4.1 34.7 46.2 0 39.7-12.5 44.9-34.7 44.9-22.1 0-34.9-3.9-34.9-44.9-.1-42.2 14.2-46.2 34.9-46.2zm0 82c19.2 0 25.6-5.2 25.6-35.8 0-36.8-8.9-37.1-25.6-37.1-16.4 0-25.8.4-25.8 37.1-.1 31.6 6.3 35.8 25.8 35.8z"/>
    </g>
    <path id="XMLID_74_" class="st8" d="M9 146.2L31.7 200h36.6z"/>
    <path id="XMLID_71_" class="st6" d="M408.8 151.6l-29 48.4h-46.6z"/>
    <path id="XMLID_70_" class="st4" d="M547.6 146.6L535 200h-48z"/>
    <path id="XMLID_69_" class="st4" d="M0 200l52.4-51.3 38.8 33.7 34.5-16.6s34 22.5 38.3 22.5c4.3 0 55.8-11.8 55.8-11.8l49.8 18.7 79.1-59.5 63.2 60.1 30.7-15.6 35.1 13.3 45.9-67.5 16 67.5 54.6-31L600 200H0z"/>
    <path id="XMLID_68_" class="st3" d="M343.1 200l5.7-64.3L417 200z"/>
    <path id="XMLID_67_" class="st3" d="M442.7 180.1l15 19.9H495z"/>
    <path id="XMLID_66_" class="st3" d="M523.7 125.9l-4 74.1H541z"/>
    <path id="XMLID_65_" class="st3" d="M219.8 176.5l12.7 23.5H287z"/>
    <path id="XMLID_64_" class="st3" d="M125.8 165.8L141 200h42.1z"/>
    <path id="XMLID_63_" class="st8" d="M52.4 148.7L68.3 200h43.4z"/>
    <path id="XMLID_62_" class="st9" d="M9 146.2L0 200h37z"/>
    <path id="XMLID_44_" class="st5" d="M594.2 162.5L569.7 200H600z"/>
</svg>
