<svg version="1.1" id="Layer_1" xmlns="http://www.w3.org/2000/svg" x="0" y="0" viewBox="0 0 600 157" xml:space="preserve"><style>.st0{fill:#edb53d}.st1{fill:none;stroke:#e9a30c;stroke-miterlimit:10}.st2{fill:#af7a09}.st3{fill:#194f50}.st4{fill:#329da0}.st5{fill:#267678}.st6{fill:#f5f5f5}.st7{fill:#9b3b23}</style><g id="XMLID_81_"><circle id="XMLID_83_" class="st0" cx="300" cy="87.5" r="46.2"/><circle id="XMLID_82_" class="st1" cx="300" cy="87.5" r="67.5"/><path id="XMLID_59_" class="st2" d="M300 133.7c-25.5 0-46.2-20.7-46.2-46.2s20.7-46.2 46.2-46.2"/></g><path id="XMLID_232_" class="st3" d="M0 104.1l12-34.5 13.8 42.1L46 87.5 83.3 120l47.2-20.9 31.7 25.4 49.8-37 28.1 37 59.9-12.8 56.5 30.1 52.3-33.2 33.8 33.2 6.2-23.3 14.2 17.9 29.5-17.9 29 23.3 47.9-46.3 8.5 16.2L600 57v100H0z"/><path id="XMLID_43_" class="st4" d="M569.4 95.5L559 157h-51.4z"/><path id="XMLID_38_" class="st5" d="M12 69.6L31.7 157H0v-52.9z"/><path id="XMLID_249_" class="st6" d="M492.6 28.8c11.4 11.4 11.4 29.8 0 41.2-11.4 11.4-29.8 11.4-41.2 0"/><path id="XMLID_37_" class="st5" d="M212 87.5L165.5 157H119z"/><path id="XMLID_36_" class="st5" d="M300 111.7L287 157h-93.8l46.9-32.5z"/><path id="XMLID_35_" class="st5" d="M46 87.5l1 69.5H0l25.8-45.3z"/><path id="XMLID_248_" class="st7" d="M122.2 70C110.8 81.4 92.4 81.4 81 70s-11.4-29.8 0-41.2"/><path id="XMLID_34_" class="st5" d="M130.5 99.1L83.3 157H47l33.3-35.5z"/><path id="XMLID_217_" class="st5" d="M600 157l-52.4-53.4-38.8 35.1-34.5-17.3s-34 23.4-38.3 23.4c-4.3 0-55.8-12.3-55.8-12.3L330.3 152l-79.1-61.9-63.2 62.5-30.7-16.2-35.1 13.8L76.3 80l-16 70.3-51.3-47L0 157h600z"/><path id="XMLID_39_" class="st5" d="M600 57l-22.7 100H559z"/><path id="XMLID_32_" class="st3" d="M9 103.3L31.7 157h36.6z"/><path id="XMLID_31_" class="st3" d="M251.2 90.1l18.5 66.9h66z"/><path id="XMLID_30_" class="st5" d="M408.8 108.6l-29 48.4h-46.6z"/><path id="XMLID_42_" class="st4" d="M547.6 103.7L535 157h-48z"/><path id="XMLID_29_" class="st3" d="M76.3 80l24.7 77h24.8z"/><path id="XMLID_231_" class="st4" d="M0 157l52.4-51.3 38.8 33.7 34.5-16.6s34 22.5 38.3 22.5c4.3 0 55.8-11.8 55.8-11.8l49.8 18.7 79.1-59.5 63.2 60.1 30.7-15.6 35.1 13.3L523.6 83l16 67.5 54.6-31L600 157H0z"/><path id="XMLID_311_" class="st3" d="M343.1 157l5.7-64.3L417 157z"/><path id="XMLID_28_" class="st3" d="M523.7 82.9l-4 74.1H541z"/><path id="XMLID_27_" class="st3" d="M52.4 105.7L68.3 157h43.4z"/><path id="XMLID_33_" class="st4" d="M9 103.3L0 157h37z"/><path id="XMLID_41_" class="st5" d="M594.2 119.5L569.7 157H600z"/></svg>